<svg width="60" height="60" viewBox="0 0 60 60" fill="none" xmlns="http://www.w3.org/2000/svg">
<rect width="60" height="60" rx="30" fill="white"/>
<g clip-path="url(#clip0)">
<path d="M35.501 19.0047L32.6481 19C29.443 19 27.3717 21.1734 27.3717 24.5373V27.0903H24.5033C24.2554 27.0903 24.0547 27.2959 24.0547 27.5494V31.2484C24.0547 31.502 24.2556 31.7072 24.5033 31.7072H27.3717V41.0412C27.3717 41.2947 27.5724 41.5 27.8203 41.5H31.5628C31.8107 41.5 32.0114 41.2945 32.0114 41.0412V31.7072H35.3653C35.6131 31.7072 35.8139 31.502 35.8139 31.2484L35.8152 27.5494C35.8152 27.4276 35.7678 27.3111 35.6839 27.2249C35.5999 27.1388 35.4854 27.0903 35.3664 27.0903H32.0114V24.9261C32.0114 23.8858 32.2538 23.3578 33.5787 23.3578L35.5005 23.3571C35.7482 23.3571 35.9489 23.1516 35.9489 22.8983V19.4635C35.9489 19.2104 35.7484 19.0051 35.501 19.0047Z" fill="#36609C"/>
</g>
<defs>
<clipPath id="clip0">
<rect width="22" height="22.5" fill="white" transform="translate(19 19)"/>
</clipPath>
</defs>
</svg>
