<svg width="12" height="23" viewBox="0 0 12 23" fill="none" xmlns="http://www.w3.org/2000/svg">
<path d="M11.4463 0.0046815L8.59342 0C5.38831 0 3.31703 2.17339 3.31703 5.53728V8.09034H0.448587C0.20072 8.09034 0 8.29585 0 8.54936V12.2484C0 12.502 0.200949 12.7072 0.448587 12.7072H3.31703V22.0412C3.31703 22.2947 3.51775 22.5 3.76561 22.5H7.50811C7.75598 22.5 7.9567 22.2945 7.9567 22.0412V12.7072H11.3106C11.5584 12.7072 11.7592 12.502 11.7592 12.2484L11.7605 8.54936C11.7605 8.42764 11.7132 8.31107 11.6292 8.22493C11.5452 8.13879 11.4307 8.09034 11.3117 8.09034H7.9567V5.92608C7.9567 4.88585 8.19907 4.35778 9.52401 4.35778L11.4458 4.35707C11.6935 4.35707 11.8942 4.15156 11.8942 3.89829V0.463469C11.8942 0.210434 11.6937 0.00514965 11.4463 0.0046815Z"/>
</svg>
