<svg width="60" height="60" viewBox="0 0 60 60" fill="none" xmlns="http://www.w3.org/2000/svg">
<rect width="60" height="60" rx="30" fill="white"/>
<path d="M34.125 19H25.875C22.0786 19 19 22.0786 19 25.875V34.125C19 37.9214 22.0786 41 25.875 41H34.125C37.9214 41 41 37.9214 41 34.125V25.875C41 22.0786 37.9214 19 34.125 19ZM38.9375 34.125C38.9375 36.7787 36.7787 38.9375 34.125 38.9375H25.875C23.2213 38.9375 21.0625 36.7787 21.0625 34.125V25.875C21.0625 23.2213 23.2213 21.0625 25.875 21.0625H34.125C36.7787 21.0625 38.9375 23.2213 38.9375 25.875V34.125Z" fill="#654637"/>
<path d="M34.125 19H25.875C22.0786 19 19 22.0786 19 25.875V34.125C19 37.9214 22.0786 41 25.875 41H34.125C37.9214 41 41 37.9214 41 34.125V25.875C41 22.0786 37.9214 19 34.125 19ZM38.9375 34.125C38.9375 36.7787 36.7787 38.9375 34.125 38.9375H25.875C23.2213 38.9375 21.0625 36.7787 21.0625 34.125V25.875C21.0625 23.2213 23.2213 21.0625 25.875 21.0625H34.125C36.7787 21.0625 38.9375 23.2213 38.9375 25.875V34.125Z" fill="url(#paint0_linear)"/>
<path d="M30 24.5C26.9626 24.5 24.5 26.9626 24.5 30C24.5 33.0374 26.9626 35.5 30 35.5C33.0374 35.5 35.5 33.0374 35.5 30C35.5 26.9626 33.0374 24.5 30 24.5ZM30 33.4375C28.1052 33.4375 26.5625 31.8948 26.5625 30C26.5625 28.1039 28.1052 26.5625 30 26.5625C31.8948 26.5625 33.4375 28.1039 33.4375 30C33.4375 31.8948 31.8948 33.4375 30 33.4375Z" fill="#654637"/>
<path d="M30 24.5C26.9626 24.5 24.5 26.9626 24.5 30C24.5 33.0374 26.9626 35.5 30 35.5C33.0374 35.5 35.5 33.0374 35.5 30C35.5 26.9626 33.0374 24.5 30 24.5ZM30 33.4375C28.1052 33.4375 26.5625 31.8948 26.5625 30C26.5625 28.1039 28.1052 26.5625 30 26.5625C31.8948 26.5625 33.4375 28.1039 33.4375 30C33.4375 31.8948 31.8948 33.4375 30 33.4375Z" fill="url(#paint1_linear)"/>
<path d="M35.9126 24.8202C36.3173 24.8202 36.6454 24.4921 36.6454 24.0874C36.6454 23.6826 36.3173 23.3545 35.9126 23.3545C35.5078 23.3545 35.1797 23.6826 35.1797 24.0874C35.1797 24.4921 35.5078 24.8202 35.9126 24.8202Z" fill="#654637"/>
<path d="M35.9126 24.8202C36.3173 24.8202 36.6454 24.4921 36.6454 24.0874C36.6454 23.6826 36.3173 23.3545 35.9126 23.3545C35.5078 23.3545 35.1797 23.6826 35.1797 24.0874C35.1797 24.4921 35.5078 24.8202 35.9126 24.8202Z" fill="url(#paint2_linear)"/>
<defs>
<linearGradient id="paint0_linear" x1="41" y1="41" x2="41" y2="19" gradientUnits="userSpaceOnUse">
<stop stop-color="#FFD978"/>
<stop offset="1" stop-color="#D52E76"/>
<stop offset="1" stop-color="#533CE4"/>
</linearGradient>
<linearGradient id="paint1_linear" x1="35.5" y1="35.5" x2="35.5" y2="24.5" gradientUnits="userSpaceOnUse">
<stop stop-color="#FFD978"/>
<stop offset="1" stop-color="#D52E76"/>
<stop offset="1" stop-color="#533CE4"/>
</linearGradient>
<linearGradient id="paint2_linear" x1="36.6454" y1="24.8202" x2="36.6454" y2="23.3545" gradientUnits="userSpaceOnUse">
<stop stop-color="#FFD978"/>
<stop offset="1" stop-color="#D52E76"/>
<stop offset="1" stop-color="#533CE4"/>
</linearGradient>
</defs>
</svg>
