<svg width="356" height="60" viewBox="0 0 356 60" fill="none" xmlns="http://www.w3.org/2000/svg">
<path d="M154.191 36.2461H156.942L154.508 40.3154L156.942 44.376H154.191L151.396 40.3154L154.191 36.2461ZM149.639 36.2461H152.381L149.946 40.3154L152.381 44.376H149.639L146.835 40.3154L149.639 36.2461ZM167.902 39.7354L171.392 40.79C171.157 41.7686 170.788 42.5859 170.284 43.2422C169.78 43.8984 169.153 44.3936 168.403 44.7275C167.659 45.0615 166.71 45.2285 165.556 45.2285C164.155 45.2285 163.01 45.0264 162.119 44.6221C161.234 44.2119 160.47 43.4941 159.825 42.4688C159.181 41.4434 158.858 40.1309 158.858 38.5312C158.858 36.3984 159.424 34.7607 160.555 33.6182C161.691 32.4697 163.297 31.8955 165.371 31.8955C166.994 31.8955 168.269 32.2236 169.194 32.8799C170.126 33.5361 170.817 34.5439 171.269 35.9033L167.753 36.6855C167.63 36.293 167.501 36.0059 167.366 35.8242C167.144 35.5195 166.871 35.2852 166.549 35.1211C166.227 34.957 165.866 34.875 165.468 34.875C164.565 34.875 163.874 35.2383 163.394 35.9648C163.03 36.5039 162.849 37.3506 162.849 38.5049C162.849 39.9346 163.065 40.916 163.499 41.4492C163.933 41.9766 164.542 42.2402 165.327 42.2402C166.089 42.2402 166.663 42.0264 167.05 41.5986C167.442 41.1709 167.727 40.5498 167.902 39.7354ZM185.173 45H181.191V35.2793H178.08V39.2432C178.08 40.8721 177.992 42.0703 177.816 42.8379C177.646 43.5996 177.242 44.1592 176.604 44.5166C175.971 44.874 174.945 45.0527 173.527 45.0527C173.094 45.0527 172.596 45.0059 172.033 44.9121V42.3018H172.631C173.17 42.3018 173.551 42.1846 173.773 41.9502C173.996 41.71 174.107 41.2734 174.107 40.6406V32.1152H185.173V45ZM195.746 42.873H191.211L190.587 45H186.518L191.36 32.1152H195.702L200.545 45H196.379L195.746 42.873ZM194.911 40.0869L193.487 35.4551L192.072 40.0869H194.911ZM215.346 47.8037H212.138V45H203.911V47.8037H200.712V42.0293H202.039C202.783 39.9492 203.155 37.6025 203.155 34.9893V32.1152H213.957V42.0293H215.346V47.8037ZM209.976 42.0293V35.2793H206.776V35.4463C206.776 37.2275 206.475 39.4219 205.871 42.0293H209.976ZM228.626 45H224.144L222.597 41.6689C222.228 40.8838 221.94 40.3945 221.735 40.2012C221.53 40.002 221.246 39.9023 220.883 39.9023V45H216.91V32.1152H220.883V37.0635C221.229 37.0459 221.498 36.9229 221.691 36.6943C221.885 36.4658 222.187 35.8096 222.597 34.7256C222.896 33.9229 223.197 33.3486 223.502 33.0029C223.807 32.6514 224.302 32.3994 224.987 32.2471C225.673 32.0947 226.748 32.0186 228.213 32.0186V34.7432H228.011C227.331 34.7432 226.827 34.8721 226.499 35.1299C226.171 35.3877 225.901 35.8066 225.69 36.3867C225.479 36.9609 225.251 37.3916 225.005 37.6787C224.765 37.96 224.434 38.1855 224.012 38.3555C224.586 38.543 225.087 38.8682 225.515 39.3311C225.942 39.7881 226.396 40.5029 226.877 41.4756L228.626 45ZM237.986 42.873H233.451L232.827 45H228.758L233.601 32.1152H237.942L242.785 45H238.619L237.986 42.873ZM237.151 40.0869L235.728 35.4551L234.312 40.0869H237.151ZM255.459 45V32.1152H248.823C247.593 32.1152 246.652 32.2207 246.002 32.4316C245.352 32.6426 244.827 33.0352 244.429 33.6094C244.03 34.1777 243.831 34.8721 243.831 35.6924C243.831 36.4072 243.983 37.0254 244.288 37.5469C244.593 38.0625 245.012 38.4814 245.545 38.8037C245.885 39.0088 246.351 39.1787 246.942 39.3135C246.468 39.4717 246.122 39.6299 245.905 39.7881C245.759 39.8936 245.545 40.1191 245.264 40.4648C244.988 40.8105 244.804 41.0771 244.71 41.2646L242.785 45H247.285L249.412 41.0625C249.682 40.5527 249.922 40.2217 250.133 40.0693C250.42 39.8701 250.745 39.7705 251.108 39.7705H251.46V45H255.459ZM251.46 37.3359H249.781C249.6 37.3359 249.248 37.2773 248.727 37.1602C248.463 37.1074 248.246 36.9727 248.076 36.7559C247.912 36.5391 247.83 36.29 247.83 36.0088C247.83 35.5928 247.962 35.2734 248.226 35.0508C248.489 34.8281 248.984 34.7168 249.711 34.7168H251.46V37.3359ZM272.703 39.7354L276.192 40.79C275.958 41.7686 275.589 42.5859 275.085 43.2422C274.581 43.8984 273.954 44.3936 273.204 44.7275C272.46 45.0615 271.511 45.2285 270.356 45.2285C268.956 45.2285 267.811 45.0264 266.92 44.6221C266.035 44.2119 265.271 43.4941 264.626 42.4688C263.981 41.4434 263.659 40.1309 263.659 38.5312C263.659 36.3984 264.225 34.7607 265.355 33.6182C266.492 32.4697 268.098 31.8955 270.172 31.8955C271.795 31.8955 273.069 32.2236 273.995 32.8799C274.927 33.5361 275.618 34.5439 276.069 35.9033L272.554 36.6855C272.431 36.293 272.302 36.0059 272.167 35.8242C271.944 35.5195 271.672 35.2852 271.35 35.1211C271.027 34.957 270.667 34.875 270.269 34.875C269.366 34.875 268.675 35.2383 268.194 35.9648C267.831 36.5039 267.649 37.3506 267.649 38.5049C267.649 39.9346 267.866 40.916 268.3 41.4492C268.733 41.9766 269.343 42.2402 270.128 42.2402C270.89 42.2402 271.464 42.0264 271.851 41.5986C272.243 41.1709 272.527 40.5498 272.703 39.7354ZM289.851 45H285.368L283.821 41.6689C283.452 40.8838 283.165 40.3945 282.96 40.2012C282.755 40.002 282.471 39.9023 282.107 39.9023V45H278.135V32.1152H282.107V37.0635C282.453 37.0459 282.723 36.9229 282.916 36.6943C283.109 36.4658 283.411 35.8096 283.821 34.7256C284.12 33.9229 284.422 33.3486 284.727 33.0029C285.031 32.6514 285.526 32.3994 286.212 32.2471C286.897 32.0947 287.973 32.0186 289.438 32.0186V34.7432H289.235C288.556 34.7432 288.052 34.8721 287.724 35.1299C287.396 35.3877 287.126 35.8066 286.915 36.3867C286.704 36.9609 286.476 37.3916 286.229 37.6787C285.989 37.96 285.658 38.1855 285.236 38.3555C285.811 38.543 286.312 38.8682 286.739 39.3311C287.167 39.7881 287.621 40.5029 288.102 41.4756L289.851 45ZM299.211 42.873H294.676L294.052 45H289.982L294.825 32.1152H299.167L304.01 45H299.844L299.211 42.873ZM298.376 40.0869L296.952 35.4551L295.537 40.0869H298.376ZM313.37 37.9951C314.917 38.4111 315.69 39.3838 315.69 40.9131C315.69 42.1729 315.204 43.207 314.231 44.0156C313.265 44.8184 311.896 45.2197 310.127 45.2197C307.104 45.2197 305.226 43.9512 304.493 41.4141L308.255 41.1328C308.466 42.0293 309.066 42.4775 310.057 42.4775C310.607 42.4775 311.023 42.3398 311.305 42.0645C311.592 41.7891 311.735 41.4053 311.735 40.9131C311.735 40.4385 311.557 40.0547 311.199 39.7617C310.842 39.4629 310.353 39.3135 309.731 39.3135H308.65V37.0107H309.503C310.013 37.0107 310.411 36.8789 310.698 36.6152C310.991 36.3457 311.138 35.9736 311.138 35.499C311.138 34.8018 310.701 34.4531 309.828 34.4531C308.926 34.4531 308.401 34.8545 308.255 35.6572L304.695 35.2441C305.275 33.0117 307.01 31.8955 309.898 31.8955C311.498 31.8955 312.752 32.2061 313.66 32.8271C314.568 33.4482 315.022 34.2832 315.022 35.332C315.022 36.5977 314.472 37.4854 313.37 37.9951ZM329.401 45H324.919L323.372 41.6689C323.003 40.8838 322.716 40.3945 322.511 40.2012C322.306 40.002 322.021 39.9023 321.658 39.9023V45H317.686V32.1152H321.658V37.0635C322.004 37.0459 322.273 36.9229 322.467 36.6943C322.66 36.4658 322.962 35.8096 323.372 34.7256C323.671 33.9229 323.973 33.3486 324.277 33.0029C324.582 32.6514 325.077 32.3994 325.763 32.2471C326.448 32.0947 327.523 32.0186 328.988 32.0186V34.7432H328.786C328.106 34.7432 327.603 34.8721 327.274 35.1299C326.946 35.3877 326.677 35.8066 326.466 36.3867C326.255 36.9609 326.026 37.3916 325.78 37.6787C325.54 37.96 325.209 38.1855 324.787 38.3555C325.361 38.543 325.862 38.8682 326.29 39.3311C326.718 39.7881 327.172 40.5029 327.652 41.4756L329.401 45ZM338.762 42.873H334.227L333.603 45H329.533L334.376 32.1152H338.718L343.561 45H339.395L338.762 42.873ZM337.927 40.0869L336.503 35.4551L335.088 40.0869H337.927ZM347.34 36.2461H344.589L347.023 40.3154L344.589 44.376H347.34L350.135 40.3154L347.34 36.2461ZM351.893 36.2461H349.15L351.585 40.3154L349.15 44.376H351.893L354.696 40.3154L351.893 36.2461Z" fill="#0055A5"/>
<path d="M200.797 15.7773H204.998V17.1074H202.443V22H200.797V15.7773ZM205.818 15.7773H207.354V16.6914C207.553 16.3789 207.822 16.125 208.162 15.9297C208.502 15.7344 208.879 15.6367 209.293 15.6367C210.016 15.6367 210.629 15.9199 211.133 16.4863C211.637 17.0527 211.889 17.8418 211.889 18.8535C211.889 19.8926 211.635 20.7012 211.127 21.2793C210.619 21.8535 210.004 22.1406 209.281 22.1406C208.938 22.1406 208.625 22.0723 208.344 21.9355C208.066 21.7988 207.773 21.5645 207.465 21.2324V24.3672H205.818V15.7773ZM207.447 18.7832C207.447 19.4824 207.586 20 207.863 20.3359C208.141 20.668 208.479 20.834 208.877 20.834C209.26 20.834 209.578 20.6816 209.832 20.377C210.086 20.0684 210.213 19.5645 210.213 18.8652C210.213 18.2129 210.082 17.7285 209.82 17.4121C209.559 17.0957 209.234 16.9375 208.848 16.9375C208.445 16.9375 208.111 17.0938 207.846 17.4062C207.58 17.7148 207.447 18.1738 207.447 18.7832ZM212.258 15.7773H214.01L215.498 20.1953L216.951 15.7773H218.656L216.459 21.7656L216.066 22.8496C215.922 23.2129 215.783 23.4902 215.65 23.6816C215.521 23.873 215.371 24.0273 215.199 24.1445C215.031 24.2656 214.822 24.3594 214.572 24.4258C214.326 24.4922 214.047 24.5254 213.734 24.5254C213.418 24.5254 213.107 24.4922 212.803 24.4258L212.656 23.1367C212.914 23.1875 213.146 23.2129 213.354 23.2129C213.736 23.2129 214.02 23.0996 214.203 22.873C214.387 22.6504 214.527 22.3652 214.625 22.0176L212.258 15.7773ZM219.652 15.7773H225.178V22H223.531V17.1074H221.299V22H219.652V15.7773ZM226.906 15.7773H232.432V22H230.785V17.1074H228.553V22H226.906V15.7773ZM235.455 17.6758L233.961 17.4062C234.129 16.8047 234.418 16.3594 234.828 16.0703C235.238 15.7812 235.848 15.6367 236.656 15.6367C237.391 15.6367 237.938 15.7246 238.297 15.9004C238.656 16.0723 238.908 16.293 239.053 16.5625C239.201 16.8281 239.275 17.3184 239.275 18.0332L239.258 19.9551C239.258 20.502 239.283 20.9062 239.334 21.168C239.389 21.4258 239.488 21.7031 239.633 22H238.004C237.961 21.8906 237.908 21.7285 237.846 21.5137C237.818 21.416 237.799 21.3516 237.787 21.3203C237.506 21.5938 237.205 21.7988 236.885 21.9355C236.564 22.0723 236.223 22.1406 235.859 22.1406C235.219 22.1406 234.713 21.9668 234.342 21.6191C233.975 21.2715 233.791 20.832 233.791 20.3008C233.791 19.9492 233.875 19.6367 234.043 19.3633C234.211 19.0859 234.445 18.875 234.746 18.7305C235.051 18.582 235.488 18.4531 236.059 18.3438C236.828 18.1992 237.361 18.0645 237.658 17.9395V17.7754C237.658 17.459 237.58 17.2344 237.424 17.1016C237.268 16.9648 236.973 16.8965 236.539 16.8965C236.246 16.8965 236.018 16.9551 235.854 17.0723C235.689 17.1855 235.557 17.3867 235.455 17.6758ZM237.658 19.0117C237.447 19.082 237.113 19.166 236.656 19.2637C236.199 19.3613 235.9 19.457 235.76 19.5508C235.545 19.7031 235.438 19.8965 235.438 20.1309C235.438 20.3613 235.523 20.5605 235.695 20.7285C235.867 20.8965 236.086 20.9805 236.352 20.9805C236.648 20.9805 236.932 20.8828 237.201 20.6875C237.4 20.5391 237.531 20.3574 237.594 20.1426C237.637 20.002 237.658 19.7344 237.658 19.3398V19.0117ZM244.18 15.7773H245.82V18.3203C246.094 18.2891 246.287 18.2051 246.4 18.0684C246.514 17.9316 246.65 17.6328 246.811 17.1719C247.021 16.5586 247.252 16.166 247.502 15.9941C247.752 15.8223 248.08 15.7363 248.486 15.7363C248.611 15.7363 248.828 15.7461 249.137 15.7656L249.143 16.8555C248.709 16.8555 248.432 16.8965 248.311 16.9785C248.189 17.0645 248.059 17.3203 247.918 17.7461C247.727 18.3203 247.451 18.6738 247.092 18.8066C247.611 18.9512 248.051 19.4023 248.41 20.1602C248.43 20.1992 248.451 20.2402 248.475 20.2832L249.395 22H247.625L246.805 20.2012C246.637 19.8379 246.49 19.6055 246.365 19.5039C246.244 19.3984 246.062 19.3457 245.82 19.3457V22H244.18V15.7773ZM249.711 18.8008C249.711 18.2539 249.846 17.7246 250.115 17.2129C250.385 16.7012 250.766 16.3105 251.258 16.041C251.754 15.7715 252.307 15.6367 252.916 15.6367C253.857 15.6367 254.629 15.9434 255.23 16.5566C255.832 17.166 256.133 17.9375 256.133 18.8711C256.133 19.8125 255.828 20.5938 255.219 21.2148C254.613 21.832 253.85 22.1406 252.928 22.1406C252.357 22.1406 251.812 22.0117 251.293 21.7539C250.777 21.4961 250.385 21.1191 250.115 20.623C249.846 20.123 249.711 19.5156 249.711 18.8008ZM251.398 18.8887C251.398 19.5059 251.545 19.9785 251.838 20.3066C252.131 20.6348 252.492 20.7988 252.922 20.7988C253.352 20.7988 253.711 20.6348 254 20.3066C254.293 19.9785 254.439 19.502 254.439 18.877C254.439 18.2676 254.293 17.7988 254 17.4707C253.711 17.1426 253.352 16.9785 252.922 16.9785C252.492 16.9785 252.131 17.1426 251.838 17.4707C251.545 17.7988 251.398 18.2715 251.398 18.8887ZM257.311 15.7773H259.35L260.896 20.1133L262.455 15.7773H264.488V22H263.088V17.9043L261.57 22H260.164L258.717 17.9043V22H257.311V15.7773ZM266.082 15.7773H271.607V22H269.961V17.1074H267.729V22H266.082V15.7773ZM274.631 17.6758L273.137 17.4062C273.305 16.8047 273.594 16.3594 274.004 16.0703C274.414 15.7812 275.023 15.6367 275.832 15.6367C276.566 15.6367 277.113 15.7246 277.473 15.9004C277.832 16.0723 278.084 16.293 278.229 16.5625C278.377 16.8281 278.451 17.3184 278.451 18.0332L278.434 19.9551C278.434 20.502 278.459 20.9062 278.51 21.168C278.564 21.4258 278.664 21.7031 278.809 22H277.18C277.137 21.8906 277.084 21.7285 277.021 21.5137C276.994 21.416 276.975 21.3516 276.963 21.3203C276.682 21.5938 276.381 21.7988 276.061 21.9355C275.74 22.0723 275.398 22.1406 275.035 22.1406C274.395 22.1406 273.889 21.9668 273.518 21.6191C273.15 21.2715 272.967 20.832 272.967 20.3008C272.967 19.9492 273.051 19.6367 273.219 19.3633C273.387 19.0859 273.621 18.875 273.922 18.7305C274.227 18.582 274.664 18.4531 275.234 18.3438C276.004 18.1992 276.537 18.0645 276.834 17.9395V17.7754C276.834 17.459 276.756 17.2344 276.6 17.1016C276.443 16.9648 276.148 16.8965 275.715 16.8965C275.422 16.8965 275.193 16.9551 275.029 17.0723C274.865 17.1855 274.732 17.3867 274.631 17.6758ZM276.834 19.0117C276.623 19.082 276.289 19.166 275.832 19.2637C275.375 19.3613 275.076 19.457 274.936 19.5508C274.721 19.7031 274.613 19.8965 274.613 20.1309C274.613 20.3613 274.699 20.5605 274.871 20.7285C275.043 20.8965 275.262 20.9805 275.527 20.9805C275.824 20.9805 276.107 20.8828 276.377 20.6875C276.576 20.5391 276.707 20.3574 276.77 20.1426C276.812 20.002 276.834 19.7344 276.834 19.3398V19.0117ZM280.016 15.7773H281.662V18.0566H284.018V15.7773H285.67V22H284.018V19.3867H281.662V22H280.016V15.7773ZM287.293 15.7773H288.875V19.6855L291.406 15.7773H293.023V22H291.441V18.0215L288.875 22H287.293V15.7773ZM294.676 15.7773H296.258V19.6855L298.789 15.7773H300.406V22H298.824V18.0215L296.258 22H294.676V15.7773ZM298.619 13.252H299.422C299.375 13.7832 299.188 14.2012 298.859 14.5059C298.535 14.8066 298.113 14.957 297.594 14.957C297.074 14.957 296.65 14.8066 296.322 14.5059C295.998 14.2012 295.812 13.7832 295.766 13.252H296.568C296.596 13.5293 296.693 13.7402 296.861 13.8848C297.029 14.0254 297.273 14.0957 297.594 14.0957C297.914 14.0957 298.158 14.0254 298.326 13.8848C298.494 13.7402 298.592 13.5293 298.619 13.252Z" fill="#0055A5"/>
<g clip-path="url(#clip0)">
<path d="M115.19 31.3719C114.339 30.3553 113.576 29.268 112.91 28.1219C116.12 23.3019 117.14 18.0319 113.1 12.8219C112.86 11.8919 113.52 9.88194 111.81 10.1119L109.62 10.6419C103.62 14.8319 100.05 18.1619 98.0895 20.9319C97.2966 21.9882 96.6818 23.1671 96.2695 24.4219C100.2 23.0919 105.08 19.9819 110.38 15.6919C112.55 18.3919 112.23 22.5719 110.18 27.8719C110.121 28.015 110.117 28.1746 110.169 28.3203C110.221 28.4659 110.324 28.5875 110.46 28.6619C113.38 32.3719 114.46 35.5619 113.04 38.8019C111.36 42.5419 110.14 46.9419 111.1 49.2419C111.17 49.3936 111.285 49.5195 111.431 49.602C111.576 49.6845 111.743 49.7194 111.91 49.7019C112.21 49.6419 112.02 49.4619 112.07 49.4419C111.95 47.8219 113.18 44.4419 114.6 42.2819L115.05 41.6819C115.05 41.6219 115.11 41.5719 115.15 41.5419C115.184 41.4999 115.211 41.4526 115.23 41.4019C117.27 38.3419 117.2 34.9319 115.19 31.3719Z" fill="#0054A4"/>
<path d="M92.2405 23.0007C74.0905 -6.65932 44.1805 -8.24932 25.6005 21.8507C25.0605 22.4407 24.5505 22.5507 24.0105 22.0907C22.2332 19.5288 20.0514 17.2727 17.5505 15.4107C14.6015 13.3432 12.0049 10.8141 9.86047 7.92068C9.65509 7.87431 9.44239 7.87054 9.23549 7.90962C9.0286 7.9487 8.83192 8.02978 8.6576 8.14787C8.48328 8.26596 8.33503 8.41854 8.22201 8.59618C8.10898 8.77382 8.03358 8.97275 8.00047 9.18068C9.15633 11.4046 10.8817 13.2818 13.0005 14.6207C16.5705 16.8607 20.0005 20.7907 23.3105 25.4807C24.0105 26.4007 24.7405 26.7007 25.4405 26.4807C27.8557 22.7192 30.5606 19.1517 33.5305 15.8107C35.3509 14.0041 37.3628 12.4013 39.5305 11.0307L39.6605 11.2107C40.9415 13.0267 42.5244 14.6097 44.3405 15.8907C44.3216 15.9331 44.2982 15.9734 44.2705 16.0107C42.2136 19.8893 40.917 24.1253 40.4505 28.4907H40.3005C34.7605 29.2907 33.0205 28.8207 27.7405 29.2607C27.1005 29.4507 26.8305 29.6607 26.7405 29.8707C26.1005 30.3607 27.1905 30.8707 28.1205 31.1407C31.8705 32.1407 34.2105 32.1407 39.6305 32.8507C39.866 32.8664 40.1 32.8999 40.3305 32.9507C40.6693 37.9803 42.198 42.8574 44.7905 47.1807C44.8471 47.3017 44.9176 47.4158 45.0005 47.5207C44.3105 48.0907 43.6405 48.7207 43.0005 49.4007C43.0114 49.3954 43.0233 49.3926 43.0355 49.3926C43.0476 49.3926 43.0596 49.3954 43.0705 49.4007C43.0123 49.4525 42.9587 49.5094 42.9105 49.5707C38.9517 47.4306 35.3184 44.7369 32.1205 41.5707C31.4841 41.0231 30.9076 40.4097 30.4005 39.7407C24.0005 29.7207 17.2605 21.0007 9.21047 14.1607L4.69047 10.8407L4.50047 11.0907L4.35047 16.7807C-0.129529 23.5407 -2.40953 28.7807 3.81047 36.4607C2.12047 40.8607 2.24047 45.2307 4.28047 50.9207C4.06047 53.3507 4.67047 54.1307 6.07047 53.4307C13.0705 49.3407 13.4905 43.0007 20.8605 38.2007C21.1498 37.9536 21.3994 37.6636 21.6005 37.3407C22.4705 36.1807 22.8205 34.4307 21.6005 34.1507C17.8005 33.2807 13.9405 36.1507 9.65047 37.7607C9.73047 37.7607 9.80047 37.7607 9.87047 37.8407C9.74006 37.904 9.60656 37.9607 9.47047 38.0107C12.0005 39.4407 15.2005 37.0007 18.0005 37.3407C14.6205 39.8107 11.1005 42.3407 8.89047 45.6507C8.89047 45.7007 8.83047 45.7207 8.82047 45.7607C8.80054 45.8156 8.76596 45.864 8.72047 45.9007C8.37047 46.4207 8.15047 46.9007 7.87047 47.3407C7.73013 47.558 7.53761 47.7368 7.31047 47.8607C4.63047 44.5207 5.40047 40.0607 6.76047 36.1707C7.05144 35.6614 7.2241 35.0931 7.26564 34.508C7.30719 33.9229 7.21656 33.336 7.00047 32.7907C3.68047 28.9207 3.41047 27.6507 4.00047 25.9407C5.12965 24.906 6.13625 23.7451 7.00047 22.4807C7.94814 21.1305 8.69899 19.6523 9.23047 18.0907C14.9793 23.5333 19.9857 29.7098 24.1205 36.4607C40.7405 63.6507 70.5905 69.5807 93.3405 36.9607C97.6105 42.4007 98.4605 43.2807 101.34 45.1807C101.59 45.2607 101.75 45.1807 101.53 44.9107C98.9305 41.2107 96.4205 37.4807 94.0705 33.6307C93.4405 32.5607 93.3005 32.2307 92.5905 32.6307C92.5325 32.7018 92.4822 32.7789 92.4405 32.8607C91.5705 34.3407 90.6605 35.7407 89.7305 37.0707C85.9292 42.5725 80.8822 47.0987 75.0005 50.2807C74.1905 49.4307 73.3805 48.6707 72.5405 47.9307C72.571 47.897 72.5979 47.8601 72.6205 47.8207C72.685 47.7502 72.742 47.6731 72.7905 47.5907C75.3524 43.1959 76.9256 38.2955 77.4005 33.2307H77.4705C82.3005 32.3707 85.2705 32.2307 87.5405 31.8507C88.0229 31.6745 88.4802 31.4358 88.9005 31.1407C88.8546 31.1093 88.804 31.0857 88.7505 31.0707L89.0705 30.8607C88.4605 30.6807 88.2405 30.3507 87.6205 30.3107C85.3405 29.9807 81.1105 29.9107 77.4705 29.6307C77.2558 24.9386 76.1102 20.336 74.1005 16.0907C74.1086 16.0477 74.1086 16.0036 74.1005 15.9607C75.5026 14.9695 76.7846 13.8184 77.9205 12.5307C77.9905 12.4607 78.0605 12.3607 78.1305 12.2807C83.2012 15.7766 87.5675 20.1971 91.0005 25.3107C96.9005 34.4507 102.73 43.2407 109.36 50.5607L109.6 45.8807C105.78 44.7107 99.4405 35.3207 92.2405 23.0007ZM42.4005 9.29068C44.8694 8.01348 47.4951 7.0654 50.2105 6.47068C48.5632 8.079 47.1915 9.94726 46.1505 12.0007C44.7478 11.33 43.4775 10.412 42.4005 9.29068ZM44.5505 50.4607C45.1305 50.0707 45.6805 49.6907 46.2305 49.3607C47.3425 50.6342 48.6486 51.7243 50.1005 52.5907C48.1999 52.0201 46.3447 51.3081 44.5505 50.4607ZM49.8705 49.0607C49.556 48.6546 49.2655 48.2306 49.0005 47.7907C51.0733 46.6825 53.3071 45.9064 55.6205 45.4907H55.8405L56.2805 52.6107C55.0299 52.4739 53.8191 52.0895 52.7186 51.48C51.6181 50.8705 50.6499 50.0481 49.8705 49.0607ZM56.3005 27.0007V27.5707C52.7619 27.4692 49.2204 27.5526 45.6905 27.8207L45.1405 27.8807V27.2407C45.3164 23.9182 45.9421 20.635 47.0005 17.4807C49.8972 18.9968 53.0641 19.9278 56.3205 20.2207H56.4705L56.3005 27.0007ZM67.0005 9.13068C67.9821 10.33 68.7623 11.681 69.3105 13.1307C66.6406 14.2038 63.8058 14.8094 60.9305 14.9207L60.7905 6.40068C63.1016 6.61377 65.281 7.57184 67.0005 9.13068ZM62.0005 34.7307C65.3405 34.7307 68.6305 34.6507 71.9205 34.5507V35.0407C71.7959 38.6897 71.0063 42.2853 69.5905 45.6507C67.1227 43.9203 64.3187 42.7279 61.3605 42.1507L61.4105 41.5507L62.0005 34.7407V34.7307ZM72.7205 51.3707C70.4244 52.3625 68.022 53.0872 65.5605 53.5307C67.5975 52.7929 69.4309 51.5832 70.9105 50.0007C71.5601 50.3927 72.1668 50.8519 72.7205 51.3707ZM71.8005 11.7607C70.9905 10.4007 70.0505 9.07068 69.0905 7.76068C70.8088 8.36255 72.4801 9.09122 74.0905 9.94068C73.3917 10.6245 72.6243 11.2343 71.8005 11.7607Z" fill="#0054A4"/>
<path d="M67.7609 48.34C65.738 46.9658 63.4241 46.0792 61.0009 45.75L60.3809 52.59C60.4624 52.6396 60.5532 52.6723 60.6477 52.6861C60.7422 52.6998 60.8385 52.6943 60.9309 52.67H61.1109C61.4709 52.61 61.8209 52.57 62.1109 52.48C62.2507 52.4472 62.3877 52.4038 62.5209 52.35C62.6938 52.3106 62.8641 52.2605 63.0309 52.2C65.0009 51.4892 66.6695 50.1275 67.7609 48.34Z" fill="#0054A4"/>
<path d="M50.8512 9.56891C49.9898 10.7692 49.2146 12.029 48.5312 13.3389C51.3305 14.3195 54.2511 14.9117 57.2113 15.0989V14.6289L57.5713 6.37891C55.4706 6.44657 53.4447 7.17435 51.7812 8.45891C51.5597 8.63664 51.3615 8.84159 51.1912 9.06891C51.1012 9.23891 51.0012 9.41891 50.8512 9.56891Z" fill="#EF4135"/>
<path d="M44.69 33.8516C44.6324 37.8771 45.5884 41.8524 47.47 45.4116C49.8624 43.9407 52.4708 42.8542 55.2 42.1916L55.57 34.7316C51.87 34.5016 48.34 34.2316 44.69 33.8516Z" fill="#EF4135"/>
<path d="M61.3509 20.5419H60.8809L61.0709 27.7819C61.0819 27.801 61.098 27.8168 61.1174 27.8274C61.1368 27.838 61.1588 27.843 61.1809 27.8419C64.9509 28.3119 68.5609 28.8419 72.1809 29.1219L72.2309 28.6919C72.3813 26.4168 72.2164 24.1318 71.7409 21.9019C71.5009 20.6419 71.1709 19.4119 70.8109 18.1719C67.7917 19.4241 64.6038 20.2227 61.3509 20.5419Z" fill="#0054A4"/>
</g>
<defs>
<clipPath id="clip0">
<rect width="116.73" height="59.2" fill="white"/>
</clipPath>
</defs>
</svg>
