<svg width="60" height="60" viewBox="0 0 60 60" fill="none" xmlns="http://www.w3.org/2000/svg">
<rect width="60" height="60" rx="30" fill="white"/>
<path d="M30 30.529C33.829 30.529 36.9332 27.5004 36.9332 23.7645C36.9332 20.0285 33.8291 17 30 17C26.1709 17 23.0668 20.0286 23.0668 23.7645C23.0715 27.4985 26.1729 30.5244 30 30.529ZM30 20.1221C32.0618 20.1221 33.7332 21.7528 33.7332 23.7645C33.7332 25.7762 32.0618 27.407 30 27.407C27.9381 27.407 26.2667 25.7762 26.2667 23.7645C26.2667 21.7528 27.9382 20.1221 30 20.1221Z" fill="#FF9800"/>
<path d="M36.7913 33.7344C37.5448 33.2502 37.9988 32.4292 37.9998 31.5489C38.0103 30.8183 37.5878 30.1475 36.915 29.8265C36.2238 29.4897 35.3965 29.5656 34.7817 30.0222C31.9326 32.0488 28.0684 32.0488 25.2193 30.0222C24.6036 29.568 23.7777 29.4922 23.086 29.8265C22.4135 30.1474 21.9908 30.8176 22.0002 31.5478C22.0018 32.428 22.4556 33.2487 23.2087 33.7333C24.1749 34.3602 25.227 34.8507 26.334 35.1903C26.5217 35.2472 26.7155 35.2999 26.9153 35.3485L23.6919 38.4237C22.8463 39.2242 22.8259 40.5419 23.6463 41.3669C24.4667 42.1919 25.8173 42.2119 26.6629 41.4114C26.6805 41.3947 26.6978 41.3778 26.7148 41.3605L30.0001 38.0428L33.2918 41.3668C34.1115 42.1924 35.4621 42.2134 36.3083 41.4136C37.1545 40.6138 37.176 39.2961 36.3563 38.4705C36.3391 38.4532 36.3217 38.4362 36.3039 38.4195L33.0859 35.3474C33.2857 35.2975 33.4802 35.2444 33.6693 35.1882C34.775 34.8499 35.8262 34.3604 36.7913 33.7344Z" fill="#FF9800"/>
</svg>
