<svg width="16" height="25" viewBox="0 0 16 25" fill="none" xmlns="http://www.w3.org/2000/svg">
<path d="M7.99998 13.529C11.829 13.529 14.9332 10.5004 14.9332 6.76448C14.9332 3.02852 11.8291 0 7.99998 0C4.17086 0 1.06682 3.02857 1.06682 6.76453C1.07152 10.4985 4.17286 13.5244 7.99998 13.529ZM7.99998 3.12208C10.0618 3.12208 11.7332 4.75283 11.7332 6.76453C11.7332 8.77622 10.0618 10.407 7.99998 10.407C5.93812 10.407 4.26671 8.77622 4.26671 6.76453C4.26671 4.75283 5.93817 3.12208 7.99998 3.12208Z"/>
<path d="M14.7913 16.7344C15.5448 16.2502 15.9988 15.4292 15.9998 14.5489C16.0103 13.8183 15.5878 13.1475 14.915 12.8265C14.2238 12.4897 13.3965 12.5656 12.7817 13.0222C9.93264 15.0488 6.06837 15.0488 3.21928 13.0222C2.6036 12.568 1.77766 12.4922 1.08598 12.8265C0.413543 13.1474 -0.00919783 13.8176 0.000151969 14.5478C0.00175193 15.428 0.455593 16.2487 1.20868 16.7333C2.17486 17.3602 3.22703 17.8507 4.33396 18.1903C4.52171 18.2472 4.71545 18.2999 4.9153 18.3485L1.69192 21.4237C0.846334 22.2242 0.825885 23.5419 1.64632 24.3669C2.46675 25.1919 3.81727 25.2119 4.6629 24.4114C4.6805 24.3947 4.6978 24.3778 4.7148 24.3605L8.00008 21.0428L11.2918 24.3668C12.1115 25.1924 13.4621 25.2134 14.3083 24.4136C15.1545 23.6138 15.176 22.2961 14.3563 21.4705C14.3391 21.4532 14.3217 21.4362 14.3039 21.4195L11.0859 18.3474C11.2857 18.2975 11.4802 18.2444 11.6693 18.1882C12.775 17.8499 13.8262 17.3604 14.7913 16.7344Z"/>
</svg>
