<svg width="60" height="60" viewBox="0 0 60 60" fill="none" xmlns="http://www.w3.org/2000/svg">
<rect width="60" height="60" rx="30" fill="white"/>
<path d="M26.535 30.4412C24.6318 30.4412 23.0943 31.9787 23.1225 33.8631C23.1412 35.0725 23.8068 36.1225 24.7865 36.7084C24.4537 36.1975 24.2568 35.5928 24.2475 34.9412C24.2193 33.0568 25.7568 31.5193 27.66 31.5193C28.035 31.5193 28.3959 31.5803 28.7334 31.6881V27.9146C28.3818 27.8631 28.0209 27.835 27.66 27.835C27.6412 27.835 27.6271 27.835 27.6084 27.835V30.61C27.2709 30.5022 26.91 30.4412 26.535 30.4412Z" fill="#F00044"/>
<path d="M34.7619 19.125H34.7338H33.7588C34.04 20.5359 34.8322 21.7641 35.9385 22.5984C35.2119 21.6375 34.7713 20.4375 34.7619 19.125Z" fill="#F00044"/>
<path d="M40.4996 24.8678C40.1293 24.8678 39.773 24.8303 39.4215 24.7646V27.4693C38.1465 27.4693 36.909 27.2209 35.7465 26.724C34.9965 26.4053 34.298 25.9975 33.6559 25.5053L33.6746 33.8443C33.6652 35.7193 32.9246 37.4771 31.584 38.8037C30.4918 39.8818 29.109 40.5709 27.609 40.7912C27.2574 40.8428 26.8965 40.8709 26.5355 40.8709C24.9324 40.8709 23.4043 40.3506 22.1621 39.3896C22.3027 39.5584 22.4527 39.7225 22.6168 39.8818C23.9668 41.2131 25.7574 41.949 27.6652 41.949C28.0262 41.949 28.3871 41.9209 28.7387 41.8693C30.2387 41.649 31.6215 40.96 32.7137 39.8818C34.0543 38.5553 34.7949 36.7975 34.8043 34.9225L34.734 26.5834C35.3715 27.0756 36.0699 27.4881 36.8246 27.8021C37.9918 28.2943 39.2293 28.5475 40.4996 28.5475" fill="#F00044"/>
<path d="M22.6028 29.9115C23.9387 28.585 25.7153 27.849 27.609 27.835V26.8365C27.2574 26.785 26.8965 26.7568 26.5356 26.7568C24.6231 26.7568 22.8278 27.4928 21.4778 28.8334C20.1512 30.1506 19.3918 31.9506 19.3965 33.8209C19.3965 35.7053 20.1418 37.4725 21.4871 38.8084C21.7028 39.0193 21.9231 39.2162 22.1574 39.3943C21.0981 38.1334 20.5215 36.5584 20.5168 34.899C20.5215 33.0287 21.2762 31.2287 22.6028 29.9115Z" fill="#08FFF9"/>
<path d="M39.4215 24.7643V23.7611H39.4121C38.109 23.7611 36.909 23.3299 35.9434 22.5986C36.7824 23.7049 38.0105 24.4924 39.4215 24.7643Z" fill="#08FFF9"/>
<path d="M27.4684 38.2594C27.9137 38.2828 28.3402 38.2219 28.734 38.0953C30.0934 37.65 31.073 36.3844 31.073 34.8937L31.0777 29.3156V19.125H33.759C33.6887 18.7734 33.6512 18.4172 33.6465 18.0469H29.9527V28.2328L29.948 33.8109C29.948 35.3016 28.9684 36.5672 27.609 37.0125C27.2152 37.1438 26.7887 37.2047 26.3434 37.1766C25.7762 37.1438 25.2465 36.975 24.7871 36.7031C25.3637 37.5938 26.348 38.1984 27.4684 38.2594Z" fill="#08FFF9"/>
<path d="M27.609 40.7906C29.109 40.5703 30.4918 39.8812 31.584 38.8031C32.9246 37.4766 33.6653 35.7188 33.6746 33.8438L33.6559 25.5047C34.2934 25.9969 34.9918 26.4094 35.7465 26.7234C36.9137 27.2156 38.1512 27.4688 39.4215 27.4688V24.7641C38.0106 24.4922 36.7824 23.7047 35.9434 22.5984C34.8371 21.7641 34.0403 20.5359 33.7637 19.125H31.0778V29.3109L31.0731 34.8891C31.0731 36.3797 30.0934 37.6453 28.734 38.0906C28.3403 38.2219 27.9137 38.2828 27.4684 38.2547C26.3434 38.1938 25.3637 37.5891 24.7871 36.7031C23.8074 36.1219 23.1418 35.0672 23.1231 33.8578C23.0949 31.9734 24.6324 30.4359 26.5356 30.4359C26.9106 30.4359 27.2715 30.4969 27.609 30.6047V27.8297C25.7153 27.8438 23.9387 28.5797 22.6028 29.9062C21.2762 31.2234 20.5168 33.0234 20.5215 34.8891C20.5215 36.5484 21.0981 38.1234 22.1621 39.3844C23.409 40.3453 24.9324 40.8656 26.5356 40.8656C26.8965 40.8703 27.2574 40.8422 27.609 40.7906Z" fill="black"/>
</svg>
