<svg width="20" height="24" viewBox="0 0 20 24" fill="none" xmlns="http://www.w3.org/2000/svg">
<path d="M19.33 5.27179C16.9293 5.27179 14.9763 3.22229 14.9763 0.703125C14.9763 0.314758 14.6763 0 14.3062 0H10.7177C10.3478 0 10.0476 0.314758 10.0476 0.703125V16.1422C10.0476 17.6232 8.89932 18.828 7.48805 18.828C6.07678 18.828 4.92863 17.6232 4.92863 16.1422C4.92863 14.6611 6.07678 13.4562 7.48805 13.4562C7.85814 13.4562 8.15809 13.1415 8.15809 12.7531V8.98737C8.15809 8.59918 7.85814 8.28424 7.48805 8.28424C3.3591 8.28424 0 11.8094 0 16.1422C0 20.475 3.3591 24 7.48805 24C11.617 24 14.9763 20.475 14.9763 16.1422V9.30817C16.3097 10.0543 17.7938 10.4438 19.33 10.4438C19.7001 10.4438 20 10.129 20 9.74066V5.97491C20 5.58673 19.7001 5.27179 19.33 5.27179Z"/>
</svg>
