<svg width="60" height="60" viewBox="0 0 60 60" fill="none" xmlns="http://www.w3.org/2000/svg">
<rect width="60" height="60" rx="30" fill="white"/>
<g clip-path="url(#clip0)">
<path fill-rule="evenodd" clip-rule="evenodd" d="M37.9341 31.6907C38.6639 32.4032 39.4341 33.0735 40.0887 33.8579C40.3778 34.2064 40.6515 34.5661 40.8609 34.9706C41.1577 35.5456 40.8889 36.1784 40.3733 36.2127L37.1683 36.2113C36.3417 36.2798 35.6822 35.9471 35.1278 35.3819C34.684 34.9299 34.2731 34.4489 33.8464 33.9816C33.6715 33.7906 33.4884 33.611 33.2697 33.4689C32.8321 33.1849 32.4523 33.2719 32.2023 33.7282C31.9477 34.1923 31.8899 34.7063 31.8649 35.2235C31.8306 35.9782 31.6024 36.1766 30.8443 36.2112C29.2242 36.2876 27.6866 36.0425 26.2582 35.2252C24.9989 34.5047 24.0224 33.4875 23.1724 32.336C21.5175 30.0937 20.2501 27.6298 19.1111 25.0968C18.8547 24.5262 19.0422 24.2198 19.6719 24.209C20.7174 24.1887 21.7629 24.1901 22.8097 24.2075C23.2346 24.2137 23.516 24.4575 23.68 24.8589C24.2457 26.2499 24.9379 27.5732 25.8067 28.7999C26.0381 29.1265 26.274 29.453 26.61 29.6829C26.9817 29.9374 27.2647 29.853 27.4395 29.439C27.5505 29.1765 27.5991 28.8937 27.6241 28.6125C27.7069 27.6452 27.7178 26.6795 27.5725 25.7155C27.4833 25.1139 27.1445 24.7244 26.5442 24.6106C26.2378 24.5525 26.2834 24.4385 26.4318 24.2637C26.6894 23.9621 26.9317 23.7744 27.4147 23.7744H31.0368C31.6071 23.887 31.7337 24.1431 31.8118 24.7169L31.8149 28.7404C31.8087 28.9625 31.9258 29.6217 32.3259 29.7687C32.6461 29.8733 32.8572 29.6172 33.0493 29.4141C33.9166 28.4937 34.5355 27.4059 35.0885 26.2795C35.3339 25.7842 35.5449 25.2699 35.7494 24.7559C35.9009 24.3746 36.1386 24.1869 36.5682 24.1952L40.0543 24.1984C40.1577 24.1984 40.2623 24.1999 40.3624 24.217C40.9498 24.3171 41.1108 24.5698 40.9294 25.1435C40.6435 26.0434 40.0873 26.7935 39.5434 27.5469C38.9621 28.3514 38.3403 29.1283 37.7638 29.9375C37.2341 30.6764 37.2761 31.0489 37.9341 31.6907Z" fill="#6087AA"/>
</g>
<defs>
<clipPath id="clip0">
<rect width="22" height="22" fill="white" transform="translate(19 19)"/>
</clipPath>
</defs>
</svg>
