<svg width="22" height="14" viewBox="0 0 22 14" fill="none" xmlns="http://www.w3.org/2000/svg">
<path fill-rule="evenodd" clip-rule="evenodd" d="M18.9341 8.69166C19.6639 9.40415 20.4341 10.0745 21.0887 10.8588C21.3778 11.2074 21.6515 11.5671 21.8609 11.9716C22.1577 12.5466 21.8889 13.1793 21.3733 13.2137L18.1683 13.2122C17.3417 13.2808 16.6822 12.948 16.1278 12.3829C15.684 11.9309 15.2731 11.4498 14.8464 10.9826C14.6715 10.7916 14.4884 10.6119 14.2697 10.4699C13.8321 10.1859 13.4523 10.2728 13.2023 10.7292C12.9477 11.1933 12.8899 11.7072 12.8649 12.2245C12.8306 12.9792 12.6024 13.1776 11.8443 13.2122C10.2242 13.2886 8.6866 13.0434 7.25822 12.2261C5.99891 11.5056 5.02236 10.4885 4.17239 9.33693C2.51748 7.09465 1.25014 4.63074 0.111107 2.0978C-0.14528 1.52713 0.0422219 1.2208 0.671878 1.20996C1.71745 1.18964 2.76288 1.19109 3.80968 1.20851C4.23463 1.21473 4.51595 1.45846 4.68003 1.85992C5.24572 3.25086 5.9379 4.57421 6.80674 5.80085C7.03812 6.12743 7.27405 6.454 7.61002 6.68386C7.9817 6.93837 8.26468 6.85402 8.43954 6.43998C8.55049 6.17745 8.59906 5.89468 8.62407 5.6135C8.70691 4.64614 8.71782 3.68044 8.57254 2.71647C8.48334 2.11486 8.14448 1.7254 7.54417 1.61156C7.23783 1.55352 7.28344 1.43953 7.43177 1.26467C7.68938 0.963109 7.93168 0.775391 8.41467 0.775391H12.0368C12.6071 0.887935 12.7337 1.14411 12.8118 1.71789L12.8149 5.74137C12.8087 5.96349 12.9258 6.62264 13.3259 6.76966C13.6461 6.87433 13.8572 6.61816 14.0493 6.41511C14.9166 5.49466 15.5355 4.40688 16.0885 3.2805C16.3339 2.78521 16.5449 2.27085 16.7494 1.75692C16.9009 1.37556 17.1386 1.18791 17.5682 1.19622L21.0543 1.19933C21.1577 1.19933 21.2623 1.20085 21.3624 1.21798C21.9498 1.31809 22.1108 1.57079 21.9294 2.14443C21.6435 3.04442 21.0873 3.79443 20.5434 4.5479C19.9621 5.35234 19.3403 6.12924 18.7638 6.93844C18.2341 7.67739 18.2761 8.04986 18.9341 8.69166Z"/>
</svg>
